<?xml version="1.0" standalone="no"?>
<!DOCTYPE svg PUBLIC "-//W3C//DTD SVG 20010904//EN"
 "http://www.w3.org/TR/2001/REC-SVG-20010904/DTD/svg10.dtd">
<svg version="1.0" xmlns="http://www.w3.org/2000/svg"
 width="225.000000pt" height="225.000000pt" viewBox="0 0 225.000000 225.000000"
 preserveAspectRatio="xMidYMid meet">
<metadata>
Created by potrace 1.14, written by Peter Selinger 2001-2017
</metadata>
<g transform="translate(0.000000,225.000000) scale(0.100000,-0.100000)"
fill="#000000" stroke="none">
<path d="M0 1125 l0 -1125 1125 0 1125 0 0 1125 0 1125 -1125 0 -1125 0 0
-1125z m1454 366 l328 -328 -44 -36 -44 -36 -285 284 -284 285 -275 -275
c-151 -151 -280 -275 -286 -275 -5 0 -25 16 -44 35 l-34 35 319 320 c176 176
320 320 320 320 0 0 148 -148 329 -329z m-59 -181 l260 -260 -35 -35 -35 -35
-225 225 -225 225 -227 -227 -226 -226 -29 33 c-15 19 -28 37 -28 40 0 9 496
520 504 520 4 0 123 -117 266 -260z m-40 -190 c121 -121 223 -220 226 -220 3
0 51 43 105 95 l99 95 3 -67 3 -67 -103 -103 -103 -102 -220 219 c-121 121
-224 219 -230 220 -5 0 -110 -100 -232 -222 l-223 -223 -105 105 -105 105 0
67 c0 38 3 68 7 68 4 0 52 -44 105 -97 l98 -98 223 223 c122 122 224 222 227
222 3 0 104 -99 225 -220z m323 -367 c53 53 101 97 105 97 4 0 7 -30 7 -67 l0
-68 -102 -102 -103 -103 -226 226 -226 225 -226 -228 -226 -228 -106 105 -105
105 0 67 c0 38 3 68 7 68 4 0 52 -44 105 -97 l98 -98 228 228 227 228 222
-228 223 -228 98 98z"/>
</g>
</svg>
